<?xml version="1.0" encoding="utf-8"?>
<!-- Generator: Adobe Illustrator 16.0.0, SVG Export Plug-In . SVG Version: 6.00 Build 0)  -->
<!DOCTYPE svg PUBLIC "-//W3C//DTD SVG 1.1//EN" "http://www.w3.org/Graphics/SVG/1.1/DTD/svg11.dtd">
<svg version="1.1" id="Layer_1" xmlns="http://www.w3.org/2000/svg" xmlns:xlink="http://www.w3.org/1999/xlink" x="0px" y="0px"
	 width="36px" height="36px" viewBox="0 0 36 36" enable-background="new 0 0 36 36" xml:space="preserve">
<g>
	<path d="M28.005,1.201H3.638l2.474,2.421h9.199v20.389l2.421-2.447V3.623h9.186c2.933,0,5.331,2.607,5.331,5.793v11.418
		c0,3.186-2.398,5.791-5.331,5.791h-3.306V6.208l-2.423,2.447v17.969H6.112l-2.474,2.424h24.367c2.42,0,4.397-2.152,4.397-4.781
		V5.981C32.402,3.352,30.425,1.201,28.005,1.201z"/>
	<g>
		<path d="M4.722,31.771H3.598v-0.576h2.875v0.576H5.35v2.967H4.722V31.771L4.722,31.771z"/>
		<path d="M8.255,31.771H7.132v-0.576h2.875v0.576H8.883v2.967H8.255V31.771z"/>
		<path d="M10.762,31.072h0.658v0.584h-0.658V31.072z M10.787,32.066h0.612v2.672h-0.612V32.066z"/>
		<path d="M12.523,31.195h1.322c1.113,0,1.883,0.764,1.883,1.762v0.01c0,0.998-0.77,1.771-1.883,1.771h-1.322V31.195z
			 M13.146,31.762v2.41h0.699c0.744,0,1.23-0.502,1.23-1.195v-0.01c0-0.693-0.486-1.205-1.23-1.205H13.146L13.146,31.762z"/>
		<path d="M16.507,31.195h2.627v0.557H17.13v0.922h1.777v0.557H17.13v0.951h2.03v0.557h-2.653V31.195z"/>
		<path d="M19.687,34.223l0.375-0.445c0.339,0.293,0.684,0.459,1.119,0.459c0.385,0,0.627-0.182,0.627-0.445v-0.01
			c0-0.254-0.142-0.389-0.799-0.541c-0.756-0.182-1.18-0.406-1.18-1.059v-0.01c0-0.607,0.506-1.027,1.209-1.027
			c0.518,0,0.927,0.156,1.287,0.445l-0.334,0.471c-0.32-0.238-0.639-0.365-0.963-0.365c-0.364,0-0.577,0.188-0.577,0.42v0.012
			c0,0.271,0.161,0.395,0.846,0.557c0.749,0.182,1.134,0.449,1.134,1.037v0.01c0,0.664-0.522,1.059-1.266,1.059
			C20.624,34.789,20.112,34.604,19.687,34.223z"/>
		<path d="M23.226,31.195h0.623v3.543h-0.623V31.195z"/>
		<path d="M24.663,32.977v-0.01c0-0.992,0.76-1.834,1.828-1.834c0.617,0,0.996,0.174,1.36,0.482l-0.396,0.471
			c-0.272-0.232-0.541-0.381-0.991-0.381c-0.652,0-1.149,0.572-1.149,1.252v0.01c0,0.729,0.481,1.266,1.205,1.266
			c0.334,0,0.639-0.105,0.856-0.268v-0.664H26.47V32.76h1.508v1.488c-0.348,0.297-0.849,0.551-1.477,0.551
			C25.393,34.799,24.663,34.008,24.663,32.977z"/>
		<path d="M28.815,31.195h0.576l1.898,2.449v-2.449h0.611v3.543h-0.52l-1.955-2.521v2.521h-0.611V31.195L28.815,31.195z"/>
	</g>
</g>
</svg>
